# xmcd
#
# Track frame offsets:
# 182
# 5027
# 25967
# 44992
# 47707
# 67972
# 69687
# 88985
# 111650
# 139960
# 156637
# 162282
# 182277
# 204962
# 227417
# 247762
# 266897
# 293107
#
# Disc length: 4084 seconds
#
#
# Revision: 5
# Processed by: cddbd v1.5.2PL0 Copyright (c) Steve Scherf et al.
# Submitted via: FreeRIP 2.951 
#
DISCID=0f0ff212
DTITLE=Mary J. Blige - My Life
DYEAR=1995
DGENRE=Soul
TTITLE0=Intro
TTITLE1=Mary Jane
TTITLE2=You Bring Me Joy
TTITLE3=Marvin Interlude
TTITLE4=I'm The Only Woman
TTITLE5=K. Murray Interlude
TTITLE6=My Life
TTITLE7=You Gotta Believe
TTITLE8=I Never Wanna Live Without You
TTITLE9=I'm Goin' Down
TTITLE10=My Life Interlude
TTITLE11=Be With You
TTITLE12=Mary's Joint
TTITLE13=Don't Go
TTITLE14=I Love You
TTITLE15=No One Else
TTITLE16=Be Happy
TTITLE17=(You Make Me Feel Like A) Natural Woman
EXTD=YEAR: 1995 ID3G: 42
EXTT0=
EXTT1=
EXTT2=
EXTT3=
EXTT4=
EXTT5=
EXTT6=
EXTT7=
EXTT8=
EXTT9=
EXTT10=
EXTT11=
EXTT12=
EXTT13=
EXTT14=
EXTT15=
EXTT16=
EXTT17=
PLAYORDER=
